<svg id="svg" xmlns="http://www.w3.org/2000/svg" xmlns:xlink="http://www.w3.org/1999/xlink" width="400" height="400" viewBox="0, 0, 400,400" version="1.1"><g id="svgg"><path id="path0" d="M197.034 66.028 C 189.659 67.490,184.305 74.711,184.858 82.448 L 185.043 85.027 181.486 85.700 C 147.287 92.171,118.316 125.246,116.525 159.863 L 116.287 164.453 113.618 164.453 C 108.721 164.453,106.407 168.597,109.674 171.516 L 110.950 172.656 133.961 172.656 L 156.971 172.656 158.160 171.656 C 159.657 170.396,160.068 168.514,159.208 166.851 C 157.973 164.463,157.894 164.453,140.474 164.453 L 124.660 164.453 124.861 160.840 C 127.459 114.222,174.893 82.606,221.984 96.105 C 253.620 105.174,275.781 134.055,275.781 166.215 C 275.781 172.187,276.379 172.656,283.998 172.656 L 289.531 172.656 290.859 171.328 C 294.046 168.141,291.743 164.453,286.567 164.453 L 284.107 164.453 283.659 159.277 C 280.541 123.333,250.995 90.979,216.256 85.468 C 215.596 85.364,215.513 84.947,215.463 81.445 C 215.316 71.356,206.664 64.118,197.034 66.028 M203.996 75.994 C 205.787 77.174,207.092 79.625,207.169 81.956 L 207.227 83.709 200.098 83.749 L 192.969 83.789 192.978 82.227 C 193.009 76.386,199.240 72.861,203.996 75.994 M193.153 105.259 C 167.291 111.205,158.510 139.546,176.394 159.353 C 181.143 164.613,182.547 167.732,183.145 174.351 C 183.779 181.367,183.461 181.237,200.000 181.243 C 216.592 181.248,216.362 181.347,216.949 173.942 C 217.429 167.887,219.162 164.014,223.644 158.984 C 234.511 146.789,235.853 131.807,227.213 119.141 C 219.911 108.436,205.278 102.472,193.153 105.259 M245.308 127.830 C 240.686 131.221,239.903 132.220,240.380 134.120 C 241.369 138.060,246.638 136.529,253.208 130.391 C 255.274 128.461,254.093 125.235,251.144 124.756 C 249.924 124.558,249.371 124.849,245.308 127.830 M214.874 128.095 C 216.297 129.518,216.402 131.424,215.147 133.053 C 212.073 137.040,200.316 150.726,199.792 150.927 C 197.708 151.727,196.780 151.254,191.797 146.851 C 185.308 141.118,184.807 140.214,186.747 137.748 C 188.238 135.852,189.983 136.265,193.543 139.355 C 195.213 140.806,196.866 142.199,197.216 142.452 C 197.763 142.849,198.611 141.935,203.320 135.878 C 210.835 126.210,212.122 125.343,214.874 128.095 M241.376 146.454 C 240.531 147.300,240.234 147.967,240.234 149.023 C 240.234 150.080,240.531 150.747,241.376 151.593 L 242.518 152.734 248.114 152.796 C 251.193 152.830,254.063 152.830,254.492 152.795 C 257.640 152.542,258.949 148.732,256.671 146.454 L 255.529 145.313 249.023 145.313 L 242.518 145.313 241.376 146.454 M241.193 161.506 C 240.188 162.510,239.963 163.997,240.627 165.238 C 241.253 166.407,249.600 173.047,250.444 173.047 C 253.245 173.047,255.188 169.806,253.679 167.651 C 250.440 163.027,243.224 159.475,241.193 161.506 M185.469 188.299 C 183.593 190.175,184.046 191.654,187.485 194.881 C 190.442 197.657,190.818 198.635,189.453 200.000 C 188.682 200.771,188.151 200.781,147.051 200.781 C 101.349 200.781,103.818 200.652,102.546 203.112 C 100.593 206.888,103.336 209.766,108.888 209.766 L 111.955 209.766 112.665 211.741 C 115.514 219.662,124.283 226.974,133.008 228.701 C 138.105 229.711,264.366 229.402,267.773 228.372 C 276.375 225.771,282.836 220.400,286.193 213.060 L 287.695 209.773 290.957 209.769 C 296.679 209.763,299.191 207.358,297.666 203.346 C 296.631 200.623,299.441 200.784,253.114 200.783 C 207.027 200.781,209.769 200.937,209.762 198.318 C 209.760 197.275,210.208 196.651,212.497 194.515 C 215.732 191.494,216.058 190.217,214.093 188.251 L 212.951 187.109 199.805 187.109 L 186.659 187.109 185.469 188.299 M278.516 209.713 C 278.516 211.949,271.056 218.067,266.824 219.303 C 263.837 220.175,136.211 220.245,132.949 219.377 C 128.613 218.223,121.094 212.082,121.094 209.695 C 121.094 209.627,156.514 209.570,199.805 209.570 C 243.096 209.570,278.516 209.635,278.516 209.713 M181.805 271.484 C 181.805 275.889,181.862 277.690,181.932 275.488 C 182.002 273.286,182.002 269.683,181.932 267.480 C 181.862 265.278,181.805 267.080,181.805 271.484 M153.800 279.969 C 154.493 280.056,155.724 280.057,156.534 279.973 C 157.345 279.888,156.777 279.817,155.273 279.816 C 153.770 279.814,153.106 279.883,153.800 279.969 M175.293 279.970 C 175.991 280.057,177.134 280.057,177.832 279.970 C 178.530 279.883,177.959 279.813,176.563 279.813 C 175.166 279.813,174.595 279.883,175.293 279.970 M196.006 279.974 C 196.925 280.057,198.331 280.055,199.131 279.971 C 199.931 279.888,199.180 279.820,197.461 279.821 C 195.742 279.823,195.088 279.892,196.006 279.974 M228.816 279.971 C 229.518 280.058,230.572 280.056,231.159 279.967 C 231.746 279.877,231.172 279.806,229.883 279.809 C 228.594 279.811,228.113 279.884,228.816 279.971 M243.457 279.972 C 244.263 280.056,245.581 280.056,246.387 279.972 C 247.192 279.888,246.533 279.819,244.922 279.819 C 243.311 279.819,242.651 279.888,243.457 279.972 M140.931 299.898 C 142.066 299.977,143.824 299.976,144.837 299.896 C 145.851 299.816,144.922 299.751,142.773 299.752 C 140.625 299.753,139.796 299.819,140.931 299.898 M275.500 299.897 C 276.527 299.978,278.109 299.977,279.016 299.895 C 279.922 299.813,279.082 299.747,277.148 299.748 C 275.215 299.749,274.473 299.816,275.500 299.897 " stroke="none" fill="#ffffff" fill-rule="evenodd"></path>
<path id="path2" d="M129.409 238.293 C 122.478 239.027,117.578 244.118,117.578 250.586 C 117.578 257.266,120.622 260.317,130.043 263.077 C 137.021 265.122,138.291 265.966,138.273 268.544 C 138.255 270.976,135.746 272.659,132.148 272.652 C 128.494 272.644,125.840 271.770,122.169 269.365 L 121.163 268.705 118.719 271.915 L 116.276 275.126 117.415 276.077 C 125.909 283.167,141.983 281.344,146.107 272.824 C 149.937 264.912,145.550 258.429,134.333 255.423 C 127.841 253.684,126.563 252.840,126.563 250.292 C 126.563 245.635,133.458 244.398,140.210 247.844 L 141.992 248.754 144.033 245.568 C 146.351 241.949,146.387 242.096,142.773 240.402 C 138.937 238.603,133.934 237.814,129.409 238.293 M269.141 245.703 L 269.141 249.609 266.602 249.609 L 264.063 249.609 264.063 252.930 L 264.063 256.250 266.602 256.250 L 269.141 256.250 269.143 264.746 C 269.145 274.558,269.363 275.716,271.634 277.987 C 274.200 280.553,279.301 281.229,283.346 279.539 L 284.766 278.946 284.766 275.759 C 284.766 272.649,284.744 272.577,283.887 272.791 C 280.662 273.594,279.762 273.547,278.739 272.524 L 277.734 271.520 277.734 263.885 L 277.734 256.250 281.250 256.250 L 284.766 256.250 284.766 252.930 L 284.766 249.609 281.250 249.609 L 277.734 249.609 277.734 245.703 L 277.734 241.797 273.438 241.797 L 269.141 241.797 269.141 245.703 M165.752 249.836 C 164.855 250.166,163.333 251.129,162.371 251.976 C 160.148 253.933,160.053 253.915,160.216 251.562 L 160.352 249.609 156.348 249.609 L 152.344 249.609 152.343 264.746 L 152.342 279.883 156.640 279.761 L 160.938 279.639 160.938 270.666 C 160.938 263.893,161.070 261.375,161.480 260.395 C 163.474 255.624,170.274 255.063,172.290 259.504 C 172.950 260.957,173.031 262.157,173.038 270.651 L 173.047 280.169 173.926 279.934 C 174.409 279.804,176.387 279.695,178.320 279.692 L 181.836 279.686 181.836 270.605 C 181.836 258.878,182.963 256.510,188.543 256.510 C 193.076 256.510,193.749 258.313,193.749 270.452 C 193.750 279.145,193.815 280.137,194.368 279.925 C 194.708 279.794,196.685 279.688,198.762 279.688 L 202.539 279.688 202.344 268.457 C 202.155 257.627,202.115 257.160,201.223 255.363 C 197.743 248.358,188.013 247.015,182.372 252.761 L 180.174 255.000 178.988 253.318 C 176.474 249.751,170.354 248.141,165.752 249.836 M217.578 249.465 C 215.352 249.891,212.573 250.935,210.681 252.054 L 208.668 253.245 210.422 255.883 L 212.176 258.522 214.593 257.391 C 220.799 254.486,225.676 255.265,226.901 259.356 C 227.568 261.581,227.582 261.574,221.791 261.826 C 211.624 262.269,207.415 264.992,207.426 271.119 C 207.441 279.405,217.753 283.454,225.297 278.137 C 227.390 276.661,227.344 276.655,227.343 278.418 L 227.342 279.883 231.249 279.759 L 235.156 279.636 235.156 269.381 C 235.156 258.080,234.923 256.491,232.840 253.616 C 230.464 250.335,223.262 248.376,217.578 249.465 M255.081 249.733 C 254.331 249.972,252.790 251.065,251.658 252.162 C 249.275 254.470,249.219 254.459,249.219 251.693 L 249.219 249.609 245.313 249.609 L 241.406 249.609 241.406 264.886 C 241.406 278.655,241.467 280.138,242.024 279.925 C 242.364 279.794,244.298 279.688,246.321 279.688 L 250.000 279.688 250.000 271.277 C 250.000 259.686,251.418 257.422,258.676 257.422 L 259.766 257.422 259.766 253.320 L 259.766 249.219 258.105 249.259 C 257.192 249.281,255.831 249.494,255.081 249.733 M226.866 269.010 C 226.447 274.062,219.955 276.429,216.113 272.930 C 214.115 271.109,215.567 267.881,218.609 267.383 C 219.438 267.247,220.381 267.080,220.703 267.011 C 221.025 266.943,222.585 266.867,224.169 266.842 L 227.050 266.797 226.866 269.010 M140.200 288.000 C 136.140 290.736,137.782 296.484,142.623 296.484 C 147.721 296.484,148.980 289.643,144.251 287.641 C 142.505 286.903,141.726 286.971,140.200 288.000 M207.031 308.203 L 207.031 328.906 211.107 328.906 L 215.182 328.906 215.306 319.824 C 215.463 308.259,216.183 306.683,221.459 306.346 C 226.776 306.006,227.714 308.052,227.726 320.020 L 227.734 328.906 231.836 328.906 L 235.938 328.906 235.938 318.626 C 235.938 305.133,235.256 302.956,230.226 300.387 C 226.331 298.398,219.224 299.446,216.546 302.405 C 215.342 303.736,215.234 303.154,215.234 295.313 L 215.234 287.500 211.133 287.500 L 207.031 287.500 207.031 308.203 M100.391 308.984 L 100.391 328.906 104.883 328.906 L 109.375 328.906 109.375 322.936 L 109.375 316.965 111.537 314.830 C 112.893 313.492,113.804 312.856,113.979 313.127 C 114.132 313.364,116.532 317.011,119.312 321.232 L 124.365 328.906 129.370 328.906 C 132.123 328.906,134.375 328.810,134.375 328.691 C 134.375 328.573,131.047 323.447,126.980 317.301 L 119.585 306.125 126.101 298.489 C 129.685 294.290,132.938 290.451,133.329 289.958 L 134.041 289.063 128.824 289.063 L 123.606 289.063 117.059 296.842 C 113.458 301.120,110.256 304.833,109.944 305.093 C 109.449 305.503,109.375 304.492,109.375 297.313 L 109.375 289.063 104.883 289.063 L 100.391 289.063 100.391 308.984 M155.469 296.094 L 155.469 300.000 153.125 300.000 L 150.781 300.000 150.781 303.125 L 150.781 306.250 153.125 306.250 L 155.469 306.250 155.469 314.358 C 155.469 325.026,156.028 326.778,160.064 328.770 C 162.450 329.947,167.299 329.958,170.020 328.793 L 171.484 328.165 171.484 324.974 C 171.484 321.851,171.466 321.789,170.605 322.039 C 164.671 323.762,164.063 322.962,164.063 313.424 L 164.063 306.250 167.773 306.250 L 171.484 306.250 171.484 303.125 L 171.484 300.000 167.773 300.000 L 164.063 300.000 164.063 296.094 L 164.063 292.188 159.766 292.188 L 155.469 292.188 155.469 296.094 M186.523 299.769 C 172.590 303.222,170.547 322.487,183.486 328.411 C 189.299 331.072,200.964 329.035,202.236 325.137 C 202.595 324.037,198.179 320.072,197.390 320.786 C 193.291 324.495,185.690 322.549,183.974 317.351 C 181.528 309.941,188.786 304.029,195.814 307.707 C 198.397 309.059,197.978 309.187,200.363 306.321 C 202.761 303.439,202.711 303.263,198.904 301.257 C 195.143 299.275,190.681 298.739,186.523 299.769 M251.068 299.619 C 237.811 302.965,236.232 322.677,248.760 328.432 C 253.109 330.430,260.211 330.044,264.685 327.567 C 268.235 325.601,268.223 325.340,264.402 320.933 C 264.224 320.729,263.078 321.119,261.702 321.852 C 255.641 325.083,249.027 322.864,248.380 317.383 L 248.242 316.211 258.553 316.107 L 268.865 316.002 268.638 312.502 C 268.017 302.912,260.336 297.280,251.068 299.619 M287.695 299.739 C 285.508 300.460,284.534 301.030,282.778 302.617 L 281.250 303.997 281.201 302.389 C 281.174 301.505,281.130 300.592,281.104 300.360 C 281.073 300.096,279.631 299.914,277.246 299.872 L 273.437 299.805 273.437 314.355 L 273.438 328.906 277.539 328.906 L 281.641 328.906 281.649 320.410 C 281.661 309.167,282.759 306.743,288.016 306.356 C 293.448 305.955,294.301 307.713,294.459 319.629 L 294.582 328.906 298.658 328.906 L 302.734 328.906 302.732 318.652 C 302.730 307.544,302.587 306.500,300.673 303.650 C 298.296 300.111,292.170 298.264,287.695 299.739 M138.444 299.967 C 138.354 300.057,138.281 306.605,138.281 314.518 L 138.281 328.906 142.578 328.906 L 146.875 328.906 146.875 314.355 L 146.875 299.805 142.741 299.805 C 140.467 299.805,138.534 299.878,138.444 299.967 M258.525 306.139 C 259.700 307.014,260.721 308.651,261.094 310.254 L 261.343 311.328 254.669 311.328 L 247.994 311.328 248.254 310.449 C 249.567 306.005,255.183 303.648,258.525 306.139 " stroke="none" fill="#ffffff" fill-rule="evenodd"></path></g></svg>